<?xml version="1.0" encoding="UTF-8" standalone="no"?>
<svg
   xmlns:dc="http://purl.org/dc/elements/1.1/"
   xmlns:cc="http://creativecommons.org/ns#"
   xmlns:rdf="http://www.w3.org/1999/02/22-rdf-syntax-ns#"
   xmlns:svg="http://www.w3.org/2000/svg"
   xmlns="http://www.w3.org/2000/svg"
   xmlns:sodipodi="http://sodipodi.sourceforge.net/DTD/sodipodi-0.dtd"
   xmlns:inkscape="http://www.inkscape.org/namespaces/inkscape"
   width="23.451654mm"
   height="11.072102mm"
   viewBox="0 0 23.451654 11.072102"
   version="1.1"
   id="svg8"
   sodipodi:docname="logo_white.svg"
   inkscape:version="1.0.1 (c497b03c, 2020-09-10)">
  <defs
     id="defs2" />
  <sodipodi:namedview
     id="base"
     pagecolor="#ffffff"
     bordercolor="#666666"
     borderopacity="1.0"
     inkscape:pageopacity="0.0"
     inkscape:pageshadow="2"
     inkscape:zoom="6.662641"
     inkscape:cx="40.113407"
     inkscape:cy="17.480292"
     inkscape:document-units="mm"
     inkscape:current-layer="layer1"
     inkscape:document-rotation="0"
     showgrid="false"
     fit-margin-top="0"
     fit-margin-left="0"
     fit-margin-right="0"
     fit-margin-bottom="0"
     inkscape:window-width="1663"
     inkscape:window-height="904"
     inkscape:window-x="0"
     inkscape:window-y="25"
     inkscape:window-maximized="0" />
  <metadata
     id="metadata5">
    <rdf:RDF>
      <cc:Work
         rdf:about="">
        <dc:format>image/svg+xml</dc:format>
        <dc:type
           rdf:resource="http://purl.org/dc/dcmitype/StillImage" />
        <dc:title></dc:title>
      </cc:Work>
    </rdf:RDF>
  </metadata>
  <g
     inkscape:label="レイヤー 1"
     inkscape:groupmode="layer"
     id="layer1"
     transform="translate(-45.958034,-89.081985)">
    <path
       d="m 46.155397,98.936339 c 0.08459,0.114041 0.155087,0.209075 0.225581,0.304108 0.244588,0.290008 0.78593,0.312746 1.140293,0.250247 0.42732,-0.07537 0.865081,-0.335265 1.177165,-0.637479 0.137956,-0.131798 0.291848,-0.234166 0.440224,-0.367801 0.01901,-0.0141 0.03433,-0.04904 0.06192,-0.0754 0.08952,-0.101765 0.179038,-0.203522 0.268557,-0.305284 0.249551,-0.291186 0.488678,-0.580533 0.711869,-0.899309 0.212768,-0.316938 0.423699,-0.644298 0.636467,-0.961237 0.01717,-0.02453 0.02391,-0.0472 0.03249,-0.05947 0.05273,-0.127513 0.09505,-0.253189 0.14595,-0.391126 0.0086,-0.01226 -0.0037,-0.02085 -0.0092,-0.05212 -0.04352,-0.0031 -0.0889,-0.01656 -0.142844,-0.01779 -0.02392,0.0472 -0.04783,0.09441 -0.05949,0.150198 -0.168634,0.38438 -0.343389,0.673121 -0.597847,0.997411 -0.173523,0.234791 -0.318849,0.507594 -0.539576,0.71847 -0.0086,0.01226 -0.02575,0.03678 -0.03433,0.04904 -0.141024,0.175325 -0.282049,0.35065 -0.412651,0.524137 -0.01901,0.0141 -0.03617,0.03862 -0.05518,0.05272 -0.204165,0.121985 -0.350099,0.330412 -0.538328,0.481823 -0.07603,0.05639 -0.153892,0.102365 -0.231757,0.148341 -0.07971,0.03555 -0.14163,0.110955 -0.205396,0.17593 -0.01901,0.0141 -0.03985,0.01777 -0.05886,0.03188 -0.09871,0.04965 -0.53217,0.21207 -0.646817,0.23229 -0.260561,0.04596 -0.652313,0.01833 -0.836829,-0.174809 -0.03862,-0.03617 -0.08582,-0.06009 -0.110346,-0.07726 -0.04781,-0.08829 -0.0711,-0.159407 -0.104813,-0.228687 -0.06435,-0.18209 -0.123195,-0.332912 -0.156282,-0.520516 -0.0239,-0.135491 -0.09132,-0.274054 -0.03,-0.413827 0.01717,-0.02452 0.0012,-0.05395 -0.0043,-0.08522 0.0012,-0.05395 -0.008,-0.106062 -0.0067,-0.160013 -0.0061,-0.09564 -0.0018,-0.193119 0.02332,-0.294272 0.03373,-0.113416 0.03251,-0.242161 0.02272,-0.358647 -0.0037,-0.203541 0.04847,-0.395428 0.123287,-0.58057 0.01533,-0.03494 0.02208,-0.05763 0.02698,-0.09073 0.04233,-0.308372 0.199919,-0.572591 0.264935,-0.874217 0.0067,-0.02269 0.02575,-0.03678 0.04292,-0.06131 0.0975,-0.178395 0.194993,-0.35679 0.29249,-0.535184 0.03066,-0.06989 0.03864,-0.146521 0.0834,-0.197402 0.09627,-0.124444 0.145326,-0.272803 0.252013,-0.399086 0.132441,-0.163065 0.254459,-0.324291 0.362378,-0.504524 0.07542,-0.120768 0.161263,-0.243374 0.287563,-0.319383 0.03801,-0.0282 0.0656,-0.05455 0.0932,-0.08092 0.125695,-0.140381 0.293686,-0.223742 0.458,-0.327949 0.09871,-0.04965 0.199257,-0.08888 0.303481,-0.107261 0.0938,-0.01654 0.270984,-0.04779 0.329217,0.03866 -0.01717,0.02452 -0.02391,0.0472 -0.03066,0.06989 -0.07358,0.131191 -0.147165,0.262381 -0.25569,0.378242 -0.06376,0.06498 -0.104849,0.136704 -0.04662,0.223155 0.12814,-0.06558 0.12814,-0.06558 0.181483,-0.128728 0.07726,-0.110346 0.13551,-0.206593 0.214606,-0.306515 0.05151,-0.07356 0.103012,-0.147128 0.119574,-0.236022 0.03373,-0.113416 -0.01224,-0.191282 -0.113395,-0.216427 -0.113416,-0.03373 -0.223155,-0.04662 -0.327379,-0.02824 -0.04169,0.0074 -0.07112,0.02329 -0.102387,0.0288 -0.215195,0.05945 -0.430391,0.11889 -0.611873,0.247621 -0.01042,0.0018 -0.02085,0.0037 -0.03127,0.0055 -0.03127,0.0055 -0.06253,0.01103 -0.0938,0.01654 -0.04783,0.09441 -0.160638,0.125052 -0.222566,0.200453 -0.151446,0.177163 -0.292471,0.352489 -0.456179,0.521068 -0.136116,0.14222 -0.221352,0.329199 -0.320687,0.497171 -0.01533,0.03494 -0.03066,0.06989 -0.05641,0.106669 -0.166777,0.212108 -0.319455,0.443221 -0.412669,0.706834 -0.01533,0.03494 -0.03066,0.06989 -0.05641,0.106669 -0.06807,0.162458 -0.15698,0.328592 -0.212787,0.499634 -0.05581,0.171042 -0.113451,0.331661 -0.158835,0.500866 -0.02698,0.09073 -0.05397,0.181465 -0.07053,0.270358 -0.04478,0.233577 -0.06687,0.4739 -0.113487,0.697054 -0.04294,0.244 0.0116,0.492299 -0.04176,0.738137 -0.0086,0.01226 0.0074,0.04169 0.01103,0.06253 0.0061,0.09564 0.03125,0.177181 0.02694,0.27466 -0.0092,0.130585 0.0024,0.257491 0.04533,0.378885 0.05516,0.129978 0.07906,0.26547 0.111538,0.388701 z"
       style="font-size:10.58329999999999949px;line-height:1.25;font-family:'North Avellion';-inkscape-font-specification:'North Avellion';stroke-width:0.264583;fill:#ffffff;fill-opacity:1"
       id="path959"
       inkscape:original-d="m 45.41006,96.872279 c 0.0635,0.127 0.116416,0.232833 0.169333,0.338666 0.190499,0.328082 0.719664,0.444498 1.079496,0.444498 0.433916,0 0.910164,-0.179916 1.269996,-0.423332 0.15875,-0.105833 0.328083,-0.179916 0.497415,-0.285749 0.02117,-0.01058 0.04233,-0.04233 0.07408,-0.0635 0.105833,-0.08467 0.211666,-0.169332 0.317499,-0.253999 0.296333,-0.243416 0.582082,-0.486832 0.857248,-0.761997 0.264582,-0.275166 0.529165,-0.560915 0.793747,-0.836081 0.02117,-0.02117 0.03175,-0.04233 0.04233,-0.05292 0.07408,-0.116416 0.137583,-0.232832 0.211666,-0.359832 0.01058,-0.01058 0,-0.02117 0,-0.05292 -0.04233,-0.01058 -0.08467,-0.03175 -0.137583,-0.04233 -0.03175,0.04233 -0.0635,0.08467 -0.08467,0.137583 -0.232833,0.349248 -0.455082,0.603248 -0.761998,0.878413 -0.211666,0.201083 -0.402165,0.444499 -0.656164,0.613832 -0.01058,0.01058 -0.03175,0.03175 -0.04233,0.04233 -0.169333,0.148166 -0.338666,0.296332 -0.497415,0.444499 -0.02117,0.01058 -0.04233,0.03175 -0.0635,0.04233 -0.222249,0.08467 -0.402166,0.264582 -0.613832,0.380999 -0.08467,0.04233 -0.169332,0.07408 -0.253999,0.105833 -0.08467,0.02117 -0.158749,0.08467 -0.232832,0.137582 -0.02117,0.01058 -0.04233,0.01058 -0.0635,0.02117 -0.105833,0.03175 -0.560915,0.116416 -0.677331,0.116416 -0.264583,0 -0.645582,-0.09525 -0.793748,-0.317499 -0.03175,-0.04233 -0.07408,-0.07408 -0.09525,-0.09525 -0.03175,-0.09525 -0.04233,-0.169333 -0.0635,-0.243416 -0.03175,-0.1905 -0.0635,-0.349249 -0.0635,-0.539749 0,-0.137582 -0.04233,-0.285749 0.04233,-0.412748 0.02117,-0.02117 0.01058,-0.05292 0.01058,-0.08467 0.01058,-0.05292 0.01058,-0.105833 0.02117,-0.158749 0.01058,-0.09525 0.03175,-0.1905 0.07408,-0.285749 0.05292,-0.105833 0.07408,-0.232833 0.08467,-0.349249 0.03175,-0.201083 0.116417,-0.380999 0.22225,-0.550332 0.02117,-0.03175 0.03175,-0.05292 0.04233,-0.08467 0.09525,-0.296332 0.296332,-0.529165 0.412749,-0.814914 0.01058,-0.02117 0.03175,-0.03175 0.05292,-0.05292 0.127,-0.158749 0.253999,-0.317499 0.380999,-0.476248 0.04233,-0.0635 0.0635,-0.137583 0.116416,-0.179916 0.116417,-0.105833 0.1905,-0.243416 0.317499,-0.349249 0.15875,-0.137583 0.306916,-0.275166 0.444499,-0.433915 0.09525,-0.105833 0.201083,-0.211666 0.338665,-0.264583 0.04233,-0.02117 0.07408,-0.04233 0.105833,-0.0635 0.148167,-0.116416 0.328083,-0.169332 0.507999,-0.243416 0.105833,-0.03175 0.211666,-0.05292 0.317499,-0.05292 0.09525,0 0.275166,0 0.317499,0.09525 -0.02117,0.02117 -0.03175,0.04233 -0.04233,0.0635 -0.09525,0.116417 -0.1905,0.232833 -0.317499,0.328083 -0.07408,0.05292 -0.127,0.116416 -0.08467,0.211666 0.137583,-0.04233 0.137583,-0.04233 0.201083,-0.09525 0.09525,-0.09525 0.169333,-0.179916 0.264582,-0.264582 0.0635,-0.0635 0.127,-0.127 0.15875,-0.211666 0.05292,-0.105833 0.02117,-0.1905 -0.07408,-0.232833 -0.105833,-0.05292 -0.211666,-0.08467 -0.317499,-0.08467 -0.04233,0 -0.07408,0.01058 -0.105833,0.01058 -0.22225,0.02117 -0.444499,0.04233 -0.645582,0.137583 -0.01058,0 -0.02117,0 -0.03175,0 -0.03175,0 -0.0635,0 -0.09525,0 -0.0635,0.08467 -0.179916,0.09525 -0.253999,0.158749 -0.179916,0.148166 -0.349249,0.296333 -0.539749,0.433916 -0.158749,0.116416 -0.275165,0.285749 -0.402165,0.433915 -0.02117,0.03175 -0.04233,0.0635 -0.07408,0.09525 -0.201083,0.179917 -0.391582,0.380999 -0.529165,0.624415 -0.02117,0.03175 -0.04233,0.0635 -0.07408,0.09525 -0.09525,0.148166 -0.211666,0.296332 -0.296333,0.455082 -0.08467,0.158749 -0.169332,0.306915 -0.243415,0.465665 -0.04233,0.08467 -0.08467,0.169333 -0.116417,0.253999 -0.08467,0.222249 -0.148166,0.455082 -0.232832,0.666748 -0.08467,0.232833 -0.07408,0.486832 -0.169333,0.719664 -0.01058,0.01058 0,0.04233 0,0.0635 -0.01058,0.09525 0,0.179916 -0.02117,0.275166 -0.03175,0.127 -0.04233,0.253999 -0.02117,0.380999 0.03175,0.137583 0.03175,0.275166 0.04233,0.402165 z"
       inkscape:export-xdpi="384"
       inkscape:export-ydpi="384" />
    <path
       d="m 52.281429,95.63135 c -0.03555,-0.07971 -0.0895,-0.08093 -0.152035,-0.06991 -0.208449,0.03676 -0.231132,0.03002 -0.44142,0.05636 -0.08338,0.01471 -0.168597,0.01899 -0.25626,-0.05152 -0.02513,-0.08155 -0.0711,-0.159407 -0.09256,-0.220102 -0.06314,-0.05334 -0.118931,-0.065 -0.171043,-0.05581 -0.06253,0.01103 -0.11097,0.04107 -0.163083,0.05026 -0.03127,0.0055 -0.05212,0.0092 -0.07479,0.0024 -0.193155,0.367212 -0.220176,0.823336 -0.202436,1.228581 0.0043,0.08522 0.02757,0.156336 0.07355,0.234201 0.06866,0.08461 0.114023,0.0981 0.218247,0.07972 0.09197,-0.02696 0.180252,-0.07477 0.264862,-0.143433 0.01166,-0.05579 0.02331,-0.111577 0.05581,-0.171042 0.07849,-0.164297 0.123874,-0.3335 0.101209,-0.522942 -0.02329,-0.07112 -0.003,-0.139169 -0.0037,-0.203541 0.128747,-0.0012 0.261168,0.01842 0.377652,0.0086 0.114648,-0.02022 0.05028,-0.01961 0.163083,-0.05026 0.11097,-0.04107 0.250138,-0.04412 0.302876,-0.17163 z m -1.044082,0.173399 c 0.01532,0.147752 -0.04237,0.673764 -0.152734,0.779202 -0.01717,0.02453 -0.04292,0.06131 -0.07235,0.07724 -0.0754,-0.06193 -0.07785,-0.136723 -0.08029,-0.211519 -0.0012,-0.311442 0.05891,-0.579963 0.123929,-0.881589 0.0705,0.09503 0.126889,0.171061 0.181446,0.236665 z"
       style="font-size:10.58329999999999949px;line-height:1.25;font-family:'North Avellion';-inkscape-font-specification:'North Avellion';stroke-width:0.264583;fill:#ffffff;fill-opacity:1"
       id="path961"
       inkscape:original-d="m 52.017016,94.681536 c -0.02117,-0.08467 -0.07408,-0.09525 -0.137583,-0.09525 -0.211666,0 -0.232833,-0.01058 -0.444499,-0.02117 -0.08467,0 -0.169333,-0.01058 -0.243416,-0.09525 -0.01058,-0.08467 -0.04233,-0.169333 -0.05292,-0.232832 -0.05292,-0.0635 -0.105833,-0.08467 -0.15875,-0.08467 -0.0635,0 -0.116416,0.02117 -0.169333,0.02117 -0.03175,0 -0.05292,0 -0.07408,-0.01058 -0.253999,0.328083 -0.359832,0.772581 -0.412748,1.174747 -0.01058,0.08467 0,0.158749 0.03175,0.243416 0.05292,0.09525 0.09525,0.116416 0.201083,0.116416 0.09525,-0.01058 0.1905,-0.04233 0.285749,-0.09525 0.02117,-0.05292 0.04233,-0.105833 0.08467,-0.158749 0.105833,-0.148167 0.179916,-0.306916 0.190499,-0.497415 -0.01058,-0.07408 0.02117,-0.137583 0.03175,-0.201083 0.127,0.02117 0.253999,0.0635 0.370415,0.07408 0.116417,0 0.05292,-0.01058 0.169333,-0.02117 0.116417,-0.02117 0.253999,0 0.328083,-0.116416 z m -1.05833,-0.01058 c -0.01058,0.148166 -0.15875,0.656164 -0.28575,0.740831 -0.02117,0.02117 -0.05292,0.05292 -0.08467,0.0635 -0.0635,-0.07408 -0.05292,-0.148167 -0.04233,-0.22225 0.05292,-0.306915 0.158749,-0.560915 0.275166,-0.846664 0.05292,0.105833 0.09525,0.1905 0.137583,0.264583 z"
       inkscape:export-xdpi="384"
       inkscape:export-ydpi="384" />
    <path
       d="m 54.160532,91.667573 c -0.176557,-0.08707 -0.18698,-0.08524 -0.355576,-0.06625 -0.0938,0.01654 -0.163083,0.05026 -0.202329,0.132404 -0.09198,0.209662 -0.171702,0.427909 -0.274107,0.639409 -0.09382,0.199241 -0.07423,0.43221 -0.18889,0.635126 -0.08035,0.33657 -0.169277,0.6854 -0.216518,1.026878 -0.01963,0.132421 -0.04969,0.266682 -0.03805,0.39359 0.02511,0.264238 -0.04542,0.534595 -0.03073,0.800672 -0.0012,0.05395 -0.02147,0.121998 -0.05581,0.171042 -0.04599,0.104831 -0.102404,0.211501 -0.148395,0.316331 -0.07665,0.174719 -0.214606,0.306516 -0.32804,0.455481 -0.102994,-0.03557 -0.115861,-0.108525 -0.106041,-0.174736 0.0411,-0.254423 0.112863,-0.578732 0.370979,-0.699481 0.0607,-0.02145 0.107295,-0.06191 0.157567,-0.08153 -0.0024,-0.07479 -0.03739,-0.09013 -0.09134,-0.09136 -0.416898,0.07353 -0.55794,0.431548 -0.552462,0.828207 -0.0031,0.04352 -0.0061,0.08706 -0.0092,0.130584 -0.0184,0.07847 0.003,0.139169 0.04535,0.196189 0.0423,0.05702 0.09317,0.10178 0.178395,0.0975 0.03801,-0.0282 0.09503,-0.0705 0.143469,-0.100526 0.09503,-0.0705 0.155124,-0.156319 0.192531,-0.248889 0.03741,-0.09257 0.07849,-0.164296 0.117734,-0.246444 0.0067,-0.02269 0.02759,-0.02636 0.05886,-0.03188 0.02206,0.125069 0.04228,0.239716 0.0625,0.354363 0.01899,0.168596 0.05024,0.345778 0.109082,0.4966 0.102974,0.218264 0.164263,0.443882 0.307085,0.644371 0.213321,0.295523 0.598308,0.52853 0.973516,0.462356 0.06254,-0.01103 0.114646,-0.02022 0.173504,-0.0521 0.03249,-0.05947 0.110364,-0.105441 0.102405,-0.2115 -0.03127,0.0055 -0.05212,0.0092 -0.08338,0.01471 -0.06253,0.01103 -0.114648,0.02022 -0.175345,0.04167 -0.323095,0.05698 -0.560955,-0.07301 -0.7565,-0.328683 -0.12689,-0.17106 -0.23968,-0.323114 -0.253761,-0.524817 -0.01408,-0.201703 -0.101118,-0.390538 -0.06125,-0.591008 -0.0018,-0.01042 -0.0055,-0.03127 -0.0074,-0.04169 -0.07417,-0.115877 -0.01285,-0.255653 -0.06617,-0.375207 0.01963,-0.132422 -0.0024,-0.257492 -0.0036,-0.386237 -0.0067,-0.160014 0.02149,-0.304696 0.115915,-0.439563 0.05825,-0.09625 0.114665,-0.202916 0.137973,-0.314493 0.0031,-0.04353 0.0184,-0.07847 0.03373,-0.113416 0.102404,-0.2115 0.196224,-0.41074 0.288206,-0.620403 0.06991,-0.152035 0.139811,-0.304071 0.188872,-0.45243 0.09137,-0.274035 0.161905,-0.544393 0.242859,-0.81659 0.05704,-0.224992 0.103654,-0.448147 0.01969,-0.68051 -0.0074,-0.04169 -0.0043,-0.08522 -0.01532,-0.147752 z m -0.903331,2.738512 c -0.0037,-0.203541 -0.0055,-0.396659 0.03623,-0.586708 0.04232,-0.125677 0.04111,-0.254422 0.07299,-0.37826 0.092,-0.392358 0.194423,-0.786555 0.310945,-1.161744 0.04906,-0.148358 0.110381,-0.288134 0.210323,-0.391733 0.08338,-0.01471 0.120161,0.01105 0.136098,0.04048 0.03737,0.272822 -0.03072,0.617977 -0.113506,0.87975 -0.07114,0.205987 -0.154535,0.403388 -0.204827,0.605697 -0.05888,0.214571 -0.164958,0.405226 -0.256939,0.614888 -0.03925,0.08215 -0.08707,0.176557 -0.114059,0.267289 -0.0135,0.04536 -0.05151,0.07356 -0.07726,0.110346 z"
       style="font-size:10.58329999999999949px;line-height:1.25;font-family:'North Avellion';-inkscape-font-specification:'North Avellion';stroke-width:0.264583;fill:#ffffff;fill-opacity:1"
       id="path963"
       inkscape:original-d="m 54.556015,91.104381 c -0.158749,-0.116416 -0.169333,-0.116416 -0.338665,-0.127 -0.09525,0 -0.169333,0.02117 -0.22225,0.09525 -0.126999,0.190499 -0.243415,0.391582 -0.380998,0.582081 -0.127,0.179917 -0.148167,0.412749 -0.296333,0.592665 -0.137583,0.317499 -0.285749,0.645581 -0.391582,0.973664 -0.04233,0.126999 -0.09525,0.253999 -0.105833,0.380999 -0.02117,0.264582 -0.137583,0.518581 -0.169333,0.783164 -0.01058,0.05292 -0.04233,0.116416 -0.08467,0.158749 -0.0635,0.09525 -0.137583,0.1905 -0.201083,0.285749 -0.105833,0.15875 -0.264582,0.264583 -0.402165,0.391582 -0.09525,-0.05292 -0.09525,-0.126999 -0.07408,-0.190499 0.08467,-0.243416 0.211666,-0.550332 0.486832,-0.624415 0.0635,-0.01058 0.116416,-0.04233 0.169332,-0.05292 0.01058,-0.07408 -0.02117,-0.09525 -0.07408,-0.105833 -0.423332,0 -0.624414,0.328082 -0.687914,0.719664 -0.01058,0.04233 -0.02117,0.08467 -0.03175,0.127 -0.03175,0.07408 -0.02117,0.137583 0.01058,0.201082 0.03175,0.0635 0.07408,0.116417 0.15875,0.127 0.04233,-0.02117 0.105833,-0.05292 0.158749,-0.07408 0.105833,-0.05292 0.179916,-0.127 0.232833,-0.211666 0.05292,-0.08467 0.105833,-0.148166 0.158749,-0.222249 0.01058,-0.02117 0.03175,-0.02117 0.0635,-0.02117 0,0.127 0,0.243416 0,0.359832 -0.01058,0.169333 -0.01058,0.349249 0.02117,0.507999 0.0635,0.232832 0.08467,0.465665 0.190499,0.687914 0.15875,0.328082 0.497415,0.624415 0.878414,0.624415 0.0635,0 0.116416,0 0.179916,-0.02117 0.04233,-0.05292 0.127,-0.08467 0.137583,-0.190499 -0.03175,0 -0.05292,0 -0.08467,0 -0.0635,0 -0.116417,0 -0.179917,0.01058 -0.328082,0 -0.539748,-0.169333 -0.687914,-0.455082 -0.09525,-0.190499 -0.179916,-0.359832 -0.15875,-0.560915 0.02117,-0.201082 -0.03175,-0.402165 0.04233,-0.592664 0,-0.01058 0,-0.03175 0,-0.04233 -0.05292,-0.126999 0.03175,-0.253999 0,-0.380998 0.04233,-0.127 0.04233,-0.254 0.0635,-0.380999 0.02117,-0.15875 0.07408,-0.296333 0.1905,-0.412749 0.07408,-0.08467 0.148166,-0.179916 0.190499,-0.285749 0.01058,-0.04233 0.03175,-0.07408 0.05292,-0.105833 0.137583,-0.190499 0.264582,-0.370415 0.391582,-0.560915 0.09525,-0.137583 0.190499,-0.275166 0.264582,-0.412749 0.137583,-0.253999 0.253999,-0.507998 0.380999,-0.761997 0.09525,-0.211666 0.179916,-0.423332 0.137583,-0.666748 0,-0.04233 0.01058,-0.08467 0.01058,-0.148166 z m -1.365245,2.539992 c 0.03175,-0.201083 0.0635,-0.391582 0.137583,-0.571498 0.0635,-0.116417 0.08467,-0.243416 0.137582,-0.359833 0.15875,-0.370415 0.328083,-0.740831 0.507999,-1.090079 0.07408,-0.137583 0.158749,-0.264583 0.275166,-0.349249 0.08467,0 0.116416,0.03175 0.126999,0.0635 -0.01058,0.275166 -0.137583,0.603249 -0.264582,0.846664 -0.105833,0.1905 -0.22225,0.370416 -0.306916,0.560915 -0.09525,0.201083 -0.232833,0.370416 -0.359832,0.560915 -0.05292,0.07408 -0.116416,0.15875 -0.15875,0.243416 -0.02117,0.04233 -0.0635,0.0635 -0.09525,0.09525 z"
       inkscape:export-xdpi="384"
       inkscape:export-ydpi="384" />
    <path
       d="m 54.244799,94.285637 c -0.16187,0.179002 -0.243429,0.386826 -0.267362,0.616726 -0.0031,0.04353 -0.0061,0.08706 -0.01963,0.132422 -0.05273,0.127513 -0.03068,0.252583 -0.01905,0.379491 -0.0012,0.05395 0.0288,0.102387 0.01348,0.13733 -0.02638,0.155105 0.04412,0.250138 0.126872,0.353757 0.13915,0.179644 0.261149,0.201113 0.469598,0.164349 0.09196,-0.02696 0.173504,-0.0521 0.246461,-0.06496 0.160638,-0.125052 0.290008,-0.244588 0.442062,-0.357379 0.05702,-0.0423 0.122625,-0.09685 0.153285,-0.16674 0.05273,-0.127514 0.02024,-0.06805 0.09933,-0.167973 0.141025,-0.175325 0.160049,-0.37212 0.231187,-0.578106 0.01533,-0.03494 0.0061,-0.08706 -0.06191,-0.107294 -0.01901,0.0141 -0.0466,0.04046 -0.05334,0.06314 -0.02638,0.155105 -0.110382,0.288134 -0.173542,0.417486 -0.06132,0.139776 -0.06868,0.09809 -0.144094,0.218853 -0.05151,0.07356 -0.09627,0.124444 -0.139187,0.185748 -0.06868,0.09809 -0.424893,0.332857 -0.560385,0.356753 -0.145914,0.02573 -0.31635,0.0343 -0.397872,-0.123267 -0.04597,-0.07787 -0.08337,-0.16799 -0.08764,-0.25321 0.0086,-0.01226 0.01717,-0.02452 0.01717,-0.02452 0.0086,-0.01226 0.02759,-0.02636 0.03801,-0.0282 0.261186,-0.164278 0.459231,-0.381899 0.557352,-0.678617 0.09689,-0.242768 0.02579,-0.402174 -0.22617,-0.551177 -0.07112,0.02329 -0.152659,0.04842 -0.244624,0.07538 z m -0.02278,0.906734 c -0.09564,0.0061 -0.146521,-0.03864 -0.134866,-0.09443 0.06562,-0.237253 0.118985,-0.483091 0.306607,-0.698874 0.03494,0.01533 0.06989,0.03066 0.117091,0.05457 0.07356,0.05151 0.09501,0.112203 0.06619,0.192512 -0.05949,0.150198 -0.09996,0.286295 -0.208486,0.402156 -0.05518,0.05272 -0.10178,0.09317 -0.146539,0.144058 z"
       style="font-size:10.58329999999999949px;line-height:1.25;font-family:'North Avellion';-inkscape-font-specification:'North Avellion';stroke-width:0.264583;fill:#ffffff;fill-opacity:1"
       id="path965"
       inkscape:original-d="m 54.184277,93.697289 c -0.190499,0.148166 -0.306915,0.338666 -0.370415,0.560915 -0.01058,0.04233 -0.02117,0.08467 -0.04233,0.127 -0.07408,0.116416 -0.07408,0.243416 -0.08467,0.370415 -0.01058,0.05292 0.01058,0.105833 -0.01058,0.137583 -0.05292,0.148166 0,0.253999 0.0635,0.370416 0.105833,0.201082 0.222249,0.243415 0.433915,0.243415 0.09525,-0.01058 0.179916,-0.02117 0.253999,-0.02117 0.179916,-0.09525 0.328082,-0.1905 0.497415,-0.275166 0.0635,-0.03175 0.137583,-0.07408 0.179916,-0.137583 0.07408,-0.116416 0.03175,-0.0635 0.127,-0.148166 0.169333,-0.148166 0.222249,-0.338666 0.328082,-0.529165 0.02117,-0.03175 0.02117,-0.08467 -0.04233,-0.116416 -0.02117,0.01058 -0.05292,0.03175 -0.0635,0.05292 -0.05292,0.148166 -0.158749,0.264583 -0.243416,0.380999 -0.08467,0.127 -0.08467,0.08467 -0.179916,0.190499 -0.0635,0.0635 -0.116416,0.105833 -0.169333,0.15875 -0.08467,0.08467 -0.476248,0.253999 -0.613831,0.253999 -0.148166,0 -0.317499,-0.02117 -0.370415,-0.190499 -0.03175,-0.08467 -0.05292,-0.179916 -0.04233,-0.264583 0.01058,-0.01058 0.02117,-0.02117 0.02117,-0.02117 0.01058,-0.01058 0.03175,-0.02117 0.04233,-0.02117 0.285749,-0.116416 0.518582,-0.296332 0.666748,-0.571498 0.137583,-0.222249 0.09525,-0.391582 -0.127,-0.582082 -0.07408,0.01058 -0.158749,0.02117 -0.253999,0.03175 z m -0.179916,0.888997 c -0.09525,-0.01058 -0.137583,-0.0635 -0.116416,-0.116416 0.105833,-0.222249 0.201083,-0.455082 0.423332,-0.634998 0.03175,0.02117 0.0635,0.04233 0.105833,0.07408 0.0635,0.0635 0.07408,0.127 0.03175,0.201083 -0.08467,0.137583 -0.148166,0.264582 -0.275166,0.359832 -0.0635,0.04233 -0.116416,0.07408 -0.169333,0.116416 z"
       inkscape:export-xdpi="384"
       inkscape:export-ydpi="384" />
    <path
       d="m 57.551537,95.338565 c 0.08459,0.11404 0.155087,0.209074 0.22558,0.304108 0.244589,0.290008 0.785931,0.312745 1.140294,0.250247 0.427319,-0.07537 0.865081,-0.335265 1.177165,-0.63748 0.137955,-0.131797 0.291847,-0.234165 0.440224,-0.3678 0.01901,-0.0141 0.03434,-0.04904 0.06193,-0.0754 0.08952,-0.101765 0.179038,-0.203522 0.268557,-0.305284 0.24955,-0.291185 0.488678,-0.580533 0.711868,-0.899308 0.212769,-0.316939 0.423699,-0.644299 0.636468,-0.961237 0.01717,-0.02453 0.02392,-0.0472 0.0325,-0.05947 0.05273,-0.127513 0.09505,-0.25319 0.14595,-0.391127 0.0086,-0.01226 -0.0037,-0.02085 -0.0092,-0.05212 -0.04352,-0.0031 -0.0889,-0.01656 -0.142844,-0.01779 -0.02392,0.0472 -0.04783,0.09441 -0.05949,0.150198 -0.168634,0.38438 -0.343389,0.673121 -0.597847,0.997412 -0.173523,0.23479 -0.318849,0.507593 -0.539576,0.718469 -0.0086,0.01226 -0.02575,0.03678 -0.03433,0.04904 -0.141023,0.175325 -0.282048,0.35065 -0.412651,0.524138 -0.01901,0.0141 -0.03617,0.03862 -0.05518,0.05272 -0.204165,0.121985 -0.350098,0.330412 -0.538327,0.481823 -0.07603,0.05639 -0.153892,0.102365 -0.231757,0.148341 -0.07971,0.03555 -0.141631,0.110956 -0.205397,0.175931 -0.01901,0.0141 -0.03985,0.01777 -0.05886,0.03188 -0.09871,0.04965 -0.53217,0.212071 -0.646818,0.232291 -0.26056,0.04595 -0.652312,0.01833 -0.836828,-0.17481 -0.03862,-0.03617 -0.08582,-0.06009 -0.110346,-0.07726 -0.04781,-0.08829 -0.0711,-0.159407 -0.104813,-0.228687 -0.06435,-0.18209 -0.123195,-0.332911 -0.156282,-0.520516 -0.0239,-0.135491 -0.09132,-0.274053 -0.03,-0.413827 0.01717,-0.02452 0.0012,-0.05395 -0.0043,-0.08522 0.0012,-0.05395 -0.008,-0.106062 -0.0067,-0.160013 -0.0061,-0.09564 -0.0018,-0.19312 0.02332,-0.294273 0.03373,-0.113416 0.03251,-0.242161 0.02272,-0.358647 -0.0037,-0.203541 0.04847,-0.395428 0.123286,-0.580569 0.01533,-0.03494 0.02208,-0.05763 0.02698,-0.09073 0.04233,-0.308372 0.199919,-0.572592 0.264935,-0.874217 0.0067,-0.02269 0.02575,-0.03678 0.04292,-0.06131 0.0975,-0.178394 0.194993,-0.356789 0.29249,-0.535184 0.03066,-0.06989 0.03864,-0.146521 0.0834,-0.197401 0.09626,-0.124444 0.145325,-0.272804 0.252013,-0.399086 0.13244,-0.163065 0.254459,-0.324291 0.362377,-0.504524 0.07542,-0.120768 0.161263,-0.243374 0.287564,-0.319383 0.03801,-0.0282 0.0656,-0.05455 0.0932,-0.08092 0.125694,-0.140381 0.293685,-0.223742 0.457999,-0.327949 0.09871,-0.04965 0.199257,-0.08888 0.303481,-0.107261 0.0938,-0.01654 0.270984,-0.04779 0.329217,0.03866 -0.01717,0.02452 -0.02392,0.0472 -0.03066,0.06989 -0.07358,0.131191 -0.147164,0.262381 -0.25569,0.378242 -0.06376,0.06498 -0.104848,0.136704 -0.04662,0.223154 0.12814,-0.06558 0.12814,-0.06558 0.181483,-0.128727 0.07726,-0.110346 0.135509,-0.206593 0.214606,-0.306515 0.05151,-0.07356 0.103012,-0.147128 0.119574,-0.236022 0.03373,-0.113416 -0.01224,-0.191282 -0.113395,-0.216428 -0.113416,-0.03373 -0.223155,-0.04662 -0.327379,-0.02824 -0.04169,0.0074 -0.07112,0.02329 -0.102387,0.0288 -0.215194,0.05945 -0.43039,0.11889 -0.611872,0.247621 -0.01042,0.0018 -0.02085,0.0037 -0.03127,0.0055 -0.03127,0.0055 -0.06253,0.01103 -0.0938,0.01654 -0.04783,0.09441 -0.160639,0.125052 -0.222567,0.200453 -0.151446,0.177163 -0.29247,0.352489 -0.456178,0.521068 -0.136116,0.142219 -0.221353,0.329199 -0.320687,0.497171 -0.01533,0.03494 -0.03066,0.06989 -0.05641,0.106669 -0.166777,0.212108 -0.319455,0.443221 -0.412669,0.706834 -0.01533,0.03494 -0.03066,0.06989 -0.05641,0.106669 -0.06807,0.162457 -0.15698,0.328591 -0.212787,0.499634 -0.05581,0.171042 -0.113452,0.331661 -0.158836,0.500865 -0.02698,0.09074 -0.05397,0.181466 -0.07053,0.270359 -0.04478,0.233577 -0.06687,0.4739 -0.113488,0.697054 -0.04294,0.244 0.0116,0.492299 -0.04176,0.738137 -0.0086,0.01226 0.0074,0.04169 0.01103,0.06253 0.0061,0.09564 0.03125,0.177182 0.02694,0.274661 -0.0092,0.130584 0.0024,0.257491 0.04533,0.378885 0.05516,0.129977 0.07906,0.265469 0.111538,0.3887 z"
       style="font-size:10.58329999999999949px;line-height:1.25;font-family:'North Avellion';-inkscape-font-specification:'North Avellion';stroke-width:0.264583;fill:#ffffff;fill-opacity:1"
       id="path967"
       inkscape:original-d="m 57.257876,95.308551 c 0.0635,0.127 0.116416,0.232833 0.169332,0.338666 0.1905,0.328082 0.719665,0.444498 1.079497,0.444498 0.433915,0 0.910164,-0.179916 1.269996,-0.423332 0.158749,-0.105833 0.328082,-0.179916 0.497415,-0.285749 0.02117,-0.01058 0.04233,-0.04233 0.07408,-0.0635 0.105833,-0.08467 0.211666,-0.169332 0.317499,-0.253999 0.296332,-0.243416 0.582082,-0.486832 0.857247,-0.761997 0.264583,-0.275166 0.529165,-0.560915 0.793748,-0.836081 0.02117,-0.02117 0.03175,-0.04233 0.04233,-0.05292 0.07408,-0.116416 0.137583,-0.232832 0.211666,-0.359832 0.01058,-0.01058 0,-0.02117 0,-0.05292 -0.04233,-0.01058 -0.08467,-0.03175 -0.137583,-0.04233 -0.03175,0.04233 -0.0635,0.08467 -0.08467,0.137583 -0.232833,0.349248 -0.455082,0.603248 -0.761998,0.878413 -0.211666,0.201083 -0.402165,0.444499 -0.656164,0.613832 -0.01058,0.01058 -0.03175,0.03175 -0.04233,0.04233 -0.169332,0.148166 -0.338665,0.296332 -0.497415,0.444499 -0.02117,0.01058 -0.04233,0.03175 -0.0635,0.04233 -0.222249,0.08467 -0.402165,0.264582 -0.613831,0.380999 -0.08467,0.04233 -0.169333,0.07408 -0.253999,0.105833 -0.08467,0.02117 -0.15875,0.08467 -0.232833,0.137582 -0.02117,0.01058 -0.04233,0.01058 -0.0635,0.02117 -0.105833,0.03175 -0.560915,0.116416 -0.677332,0.116416 -0.264582,0 -0.645581,-0.09525 -0.793747,-0.317499 -0.03175,-0.04233 -0.07408,-0.07408 -0.09525,-0.09525 -0.03175,-0.09525 -0.04233,-0.169333 -0.0635,-0.243416 -0.03175,-0.1905 -0.0635,-0.349249 -0.0635,-0.539749 0,-0.137582 -0.04233,-0.285749 0.04233,-0.412748 0.02117,-0.02117 0.01058,-0.05292 0.01058,-0.08467 0.01058,-0.05292 0.01058,-0.105833 0.02117,-0.158749 0.01058,-0.09525 0.03175,-0.1905 0.07408,-0.285749 0.05292,-0.105833 0.07408,-0.232833 0.08467,-0.349249 0.03175,-0.201083 0.116416,-0.380999 0.222249,-0.550332 0.02117,-0.03175 0.03175,-0.05292 0.04233,-0.08467 0.09525,-0.296332 0.296332,-0.529165 0.412748,-0.814914 0.01058,-0.02117 0.03175,-0.03175 0.05292,-0.05292 0.126999,-0.158749 0.253999,-0.317499 0.380999,-0.476248 0.04233,-0.0635 0.0635,-0.137583 0.116416,-0.179916 0.116416,-0.105833 0.190499,-0.243416 0.317499,-0.349249 0.158749,-0.137583 0.306916,-0.275166 0.444498,-0.433915 0.09525,-0.105833 0.201083,-0.211666 0.338666,-0.264583 0.04233,-0.02117 0.07408,-0.04233 0.105833,-0.0635 0.148166,-0.116416 0.328082,-0.169332 0.507998,-0.243416 0.105833,-0.03175 0.211666,-0.05292 0.317499,-0.05292 0.09525,0 0.275166,0 0.317499,0.09525 -0.02117,0.02117 -0.03175,0.04233 -0.04233,0.0635 -0.09525,0.116417 -0.190499,0.232833 -0.317499,0.328083 -0.07408,0.05292 -0.126999,0.116416 -0.08467,0.211666 0.137583,-0.04233 0.137583,-0.04233 0.201083,-0.09525 0.09525,-0.09525 0.169332,-0.179916 0.264582,-0.264582 0.0635,-0.0635 0.127,-0.127 0.15875,-0.211666 0.05292,-0.105833 0.02117,-0.1905 -0.07408,-0.232833 -0.105833,-0.05292 -0.211666,-0.08467 -0.317499,-0.08467 -0.04233,0 -0.07408,0.01058 -0.105833,0.01058 -0.222249,0.02117 -0.444498,0.04233 -0.645581,0.137583 -0.01058,0 -0.02117,0 -0.03175,0 -0.03175,0 -0.0635,0 -0.09525,0 -0.0635,0.08467 -0.179917,0.09525 -0.254,0.158749 -0.179916,0.148166 -0.349248,0.296333 -0.539748,0.433916 -0.158749,0.116416 -0.275166,0.285749 -0.402165,0.433915 -0.02117,0.03175 -0.04233,0.0635 -0.07408,0.09525 -0.201083,0.179917 -0.391582,0.380999 -0.529165,0.624415 -0.02117,0.03175 -0.04233,0.0635 -0.07408,0.09525 -0.09525,0.148166 -0.211666,0.296332 -0.296333,0.455082 -0.08467,0.158749 -0.169333,0.306915 -0.243416,0.465665 -0.04233,0.08467 -0.08467,0.169333 -0.116416,0.253999 -0.08467,0.222249 -0.148166,0.455082 -0.232833,0.666748 -0.08467,0.232833 -0.07408,0.486832 -0.169332,0.719664 -0.01058,0.01058 0,0.04233 0,0.0635 -0.01058,0.09525 0,0.179916 -0.02117,0.275166 -0.03175,0.127 -0.04233,0.253999 -0.02117,0.380999 0.03175,0.137583 0.03175,0.275166 0.04233,0.402165 z"
       inkscape:export-xdpi="384"
       inkscape:export-ydpi="384" />
    <path
       d="m 62.240013,92.125896 c -0.126999,0.211666 -0.222249,0.433916 -0.243416,0.666748 -0.03175,0.232833 -0.05292,0.465665 0.105833,0.656165 0.09525,0.07408 0.1905,0.09525 0.285749,0.09525 0.465666,0 1.047747,-0.433916 1.206497,-0.878414 -0.02117,-0.04233 -0.05292,-0.05292 -0.07408,-0.05292 -0.03175,0 -0.05292,0.01058 -0.07408,0.02117 -0.03175,0.01058 -0.0635,0.04233 -0.07408,0.07408 -0.05292,0.137583 -0.179916,0.211666 -0.264582,0.317499 -0.08467,0.116416 -0.179916,0.211666 -0.317499,0.243416 -0.05292,0.01058 -0.08467,0.05292 -0.127,0.0635 -0.0635,0.01058 -0.126999,0.02117 -0.179916,0.02117 -0.07408,0 -0.137583,-0.01058 -0.190499,-0.0635 -0.116417,-0.09525 -0.09525,-0.222249 -0.07408,-0.338665 0.03175,-0.169333 0.116416,-0.529165 0.201082,-0.656165 0.03175,-0.04233 0.02117,-0.105833 0.02117,-0.148166 -0.03175,-0.03175 -0.0635,-0.04233 -0.09525,-0.04233 -0.03175,0 -0.0635,0.01058 -0.105833,0.02117 z"
       style="font-size:10.58329999999999949px;line-height:1.25;font-family:'North Avellion';-inkscape-font-specification:'North Avellion';stroke-width:0.264583;fill:#ffffff;fill-opacity:1"
       id="path969"
       inkscape:original-d="m 62.573668,92.493393 c -0.126999,0.211666 -0.222249,0.433916 -0.243416,0.666748 -0.03175,0.232833 -0.05292,0.465665 0.105833,0.656165 0.09525,0.07408 0.1905,0.09525 0.285749,0.09525 0.465666,0 1.047747,-0.433916 1.206497,-0.878414 -0.02117,-0.04233 -0.05292,-0.05292 -0.07408,-0.05292 -0.03175,0 -0.05292,0.01058 -0.07408,0.02117 -0.03175,0.01058 -0.0635,0.04233 -0.07408,0.07408 -0.05292,0.137583 -0.179916,0.211666 -0.264582,0.317499 -0.08467,0.116416 -0.179916,0.211666 -0.317499,0.243416 -0.05292,0.01058 -0.08467,0.05292 -0.127,0.0635 -0.0635,0.01058 -0.126999,0.02117 -0.179916,0.02117 -0.07408,0 -0.137583,-0.01058 -0.190499,-0.0635 -0.116417,-0.09525 -0.09525,-0.222249 -0.07408,-0.338665 0.03175,-0.169333 0.116416,-0.529165 0.201082,-0.656165 0.03175,-0.04233 0.02117,-0.105833 0.02117,-0.148166 -0.03175,-0.03175 -0.0635,-0.04233 -0.09525,-0.04233 -0.03175,0 -0.0635,0.01058 -0.105833,0.02117 z"
       sodipodi:nodetypes="cccscscccccsccccscc"
       inkscape:export-xdpi="384"
       inkscape:export-ydpi="384" />
    <path
       d="m 63.945801,90.084113 c 0.0607,-0.02145 0.119554,-0.05333 0.182089,-0.06436 0.329842,-0.07967 0.661522,-0.148911 0.99504,-0.207733 0.208449,-0.03676 0.416898,-0.07353 0.627185,-0.09987 0.168597,-0.01899 0.330447,-0.0153 0.489229,0.03193 0.03494,0.01533 0.05763,0.02208 0.0889,0.01656 0.02085,-0.0037 0.04169,-0.0074 0.06928,-0.03372 -0.0037,-0.02085 0.0031,-0.04352 0.0012,-0.05395 -0.03372,-0.06928 -0.09318,-0.101781 -0.169811,-0.109758 -0.416272,-0.0448 -0.793319,0.01096 -1.199794,0.08265 -0.323096,0.05698 -0.642514,0.134815 -0.961935,0.212637 -0.03127,0.0055 -0.06805,-0.02024 -0.09074,-0.02698 -0.01531,-0.147752 0.03559,-0.28569 -0.02141,-0.42609 -0.160638,0.125052 -0.09628,0.307141 -0.157604,0.446916 -0.103618,0.08276 -0.150216,0.123213 -0.233595,0.137919 -0.187605,0.03309 -0.378278,0.109699 -0.562206,0.163635 -0.110969,0.04107 -0.232364,0.08397 -0.347011,0.104185 -0.177181,0.03125 -0.359271,0.0956 -0.520515,0.156282 -0.0607,0.02145 -0.129977,0.05516 -0.192512,0.06619 -0.15266,0.04842 -0.298574,0.07416 -0.449396,0.132995 -0.242786,0.0858 -0.497833,0.163025 -0.746132,0.217571 -0.05212,0.0092 -0.0938,0.01654 -0.133654,0.03432 -0.01042,0.0018 -0.02759,0.02636 -0.04476,0.05088 0.0141,0.01901 0.04046,0.0466 0.06866,0.08461 0.05212,-0.0092 0.0938,-0.01654 0.145914,-0.02573 0.02085,-0.0037 0.04169,-0.0074 0.06253,-0.01103 0.05395,0.0012 0.107901,0.0025 0.160014,-0.0067 0.05212,-0.0092 0.102385,-0.0288 0.16492,-0.03983 0.263632,-0.08948 0.520516,-0.156282 0.771886,-0.254349 0.100548,-0.03923 0.182089,-0.06436 0.274054,-0.09132 0.154499,-0.03799 0.308996,-0.07599 0.456143,-0.155672 0.05886,-0.03188 0.112809,-0.03064 0.183927,-0.05394 0.19435,-0.05577 0.392376,-0.0907 0.572628,-0.165473 0.03985,-0.01777 0.09197,-0.02696 0.133654,-0.03432 0.07295,-0.01287 0.147752,-0.01532 0.228063,0.01351 -0.01533,0.03494 -0.0098,0.06621 -0.01656,0.0889 -0.06316,0.129354 -0.09505,0.25319 -0.07116,0.388682 0.0055,0.03127 -0.02024,0.06805 -0.02331,0.111577 -0.0098,0.06621 -0.0509,0.137935 -0.06071,0.204147 -0.01289,0.109739 -0.03619,0.221316 -0.02824,0.32738 -0.0061,0.08706 -0.07358,0.13119 -0.0693,0.216408 0.04473,0.314511 -0.07057,0.635751 -0.02584,0.950262 -0.0086,0.01226 -0.0086,0.01226 -0.0067,0.02269 -0.06133,0.139775 -0.01474,0.282013 0.01773,0.405244 0.05515,0.312673 0.205325,0.554853 0.517373,0.61803 0.12507,-0.02206 0.207842,-0.101136 0.253833,-0.205968 0.03741,-0.09257 0.07297,-0.195563 0.120805,-0.289971 0.126925,-0.194332 0.323793,-0.906092 0.331789,-1.165421 0.0049,-0.03311 -0.01287,-0.07295 -0.05639,-0.07603 -0.09075,0.155712 -0.09075,0.155712 -0.09996,0.286295 -0.01166,0.05579 -0.07053,0.270358 -0.08218,0.326147 -0.06072,0.204148 -0.123268,0.397873 -0.18582,0.591598 -0.01166,0.05579 -0.02698,0.09073 -0.06991,0.152035 -0.02392,0.0472 -0.06684,0.108509 -0.113434,0.148967 -0.01901,0.0141 -0.03985,0.01777 -0.07112,0.02329 -0.04169,0.0074 -0.08522,0.0043 -0.141007,-0.0074 -0.159995,-0.175967 -0.221279,-0.401585 -0.244551,-0.6554 -0.0092,-0.234808 -0.0061,-0.461031 -0.01526,-0.695841 0.0067,-0.02269 0.0031,-0.04352 0.0098,-0.06621 0.03987,-0.200471 0.06073,-0.386844 0.102441,-0.576892 0.07851,-0.346992 0.123911,-0.698893 0.169314,-1.050792 0.0012,-0.05395 0.01288,-0.109739 0.01411,-0.163689 z"
       style="font-size:10.58329999999999949px;line-height:1.25;font-family:'North Avellion';-inkscape-font-specification:'North Avellion';stroke-width:0.264583;fill:#ffffff;fill-opacity:1"
       id="path971"
       inkscape:original-d="m 64.467584,91.244564 c 0.0635,-0.01058 0.126999,-0.03175 0.190499,-0.03175 0.338666,-0.02117 0.677331,-0.03175 1.015997,-0.03175 0.211666,0 0.423332,0 0.634998,0.01058 0.169333,0.01058 0.328082,0.04233 0.476248,0.116416 0.03175,0.02117 0.05292,0.03175 0.08467,0.03175 0.02117,0 0.04233,0 0.07408,-0.02117 0,-0.02117 0.01058,-0.04233 0.01058,-0.05292 -0.02117,-0.07408 -0.07408,-0.116417 -0.148166,-0.137583 -0.402165,-0.116417 -0.783164,-0.127 -1.195913,-0.127 -0.328082,0 -0.656164,0.02117 -0.984247,0.04233 -0.03175,0 -0.0635,-0.03175 -0.08467,-0.04233 0.01058,-0.148166 0.08467,-0.275166 0.05292,-0.423332 -0.179916,0.09525 -0.148166,0.285749 -0.232832,0.412749 -0.116416,0.0635 -0.169333,0.09525 -0.253999,0.09525 -0.1905,0 -0.391582,0.04233 -0.582082,0.0635 -0.116416,0.02117 -0.243416,0.04233 -0.359832,0.04233 -0.179916,0 -0.370416,0.03175 -0.539748,0.0635 -0.0635,0.01058 -0.137583,0.03175 -0.201083,0.03175 -0.15875,0.02117 -0.306916,0.02117 -0.465665,0.05292 -0.253999,0.04233 -0.518582,0.07408 -0.772581,0.08467 -0.05292,0 -0.09525,0 -0.137583,0.01058 -0.01058,0 -0.03175,0.02117 -0.05292,0.04233 0.01058,0.02117 0.03175,0.05292 0.05292,0.09525 0.05292,0 0.09525,0 0.148166,0 0.02117,0 0.04233,0 0.0635,0 0.05292,0.01058 0.105833,0.02117 0.15875,0.02117 0.05292,0 0.105832,-0.01058 0.169332,-0.01058 0.275166,-0.04233 0.539749,-0.0635 0.804331,-0.116417 0.105833,-0.02117 0.190499,-0.03175 0.285749,-0.04233 0.15875,-0.01058 0.317499,-0.02117 0.476249,-0.07408 0.0635,-0.02117 0.116416,-0.01058 0.190499,-0.02117 0.201083,-0.02117 0.402165,-0.02117 0.592665,-0.0635 0.04233,-0.01058 0.09525,-0.01058 0.137583,-0.01058 0.07408,0 0.148166,0.01058 0.222249,0.05292 -0.02117,0.03175 -0.02117,0.0635 -0.03175,0.08467 -0.08467,0.116417 -0.137583,0.232833 -0.137583,0.370416 0,0.03175 -0.03175,0.0635 -0.04233,0.105833 -0.02117,0.0635 -0.07408,0.126999 -0.09525,0.190499 -0.03175,0.105833 -0.07408,0.211666 -0.08467,0.317499 -0.02117,0.08467 -0.09525,0.116416 -0.105833,0.201083 -0.01058,0.317499 -0.179916,0.613831 -0.190499,0.93133 -0.01058,0.01058 -0.01058,0.01058 -0.01058,0.02117 -0.08467,0.126999 -0.0635,0.275166 -0.05292,0.402165 0,0.317499 0.105833,0.582082 0.402165,0.698498 0.127,0 0.222249,-0.0635 0.285749,-0.15875 0.05292,-0.08467 0.105833,-0.179916 0.169333,-0.264582 0.158749,-0.169333 0.476248,-0.836081 0.529165,-1.09008 0.01058,-0.03175 0,-0.07408 -0.04233,-0.08467 -0.116417,0.137583 -0.116417,0.137583 -0.148166,0.264582 -0.02117,0.05292 -0.116417,0.253999 -0.137583,0.306916 -0.09525,0.190499 -0.1905,0.370415 -0.285749,0.550331 -0.02117,0.05292 -0.04233,0.08467 -0.09525,0.137583 -0.03175,0.04233 -0.08467,0.09525 -0.137583,0.127 -0.02117,0.01058 -0.04233,0.01058 -0.07408,0.01058 -0.04233,0 -0.08467,-0.01058 -0.137583,-0.03175 -0.127,-0.201082 -0.148166,-0.433915 -0.127,-0.687914 0.03175,-0.232833 0.07408,-0.455082 0.105833,-0.687915 0.01058,-0.02117 0.01058,-0.04233 0.02117,-0.0635 0.07408,-0.1905 0.127,-0.370416 0.201083,-0.550332 0.137583,-0.328082 0.243416,-0.666748 0.349249,-1.005413 0.01058,-0.05292 0.03175,-0.105833 0.04233,-0.15875 z"
       inkscape:export-xdpi="384"
       inkscape:export-ydpi="384" />
    <path
       d="m 66.430151,91.902748 c 0.02759,-0.02636 0.0466,-0.04046 0.07419,-0.06682 0.191906,-0.130566 0.666728,-0.373067 1.467824,-0.66772 1.166582,-0.37065 1.431386,-0.693364 1.437524,-0.780423 -0.06437,6.1e-4 -0.740876,0.158713 -1.536649,0.552561 -0.795705,0.393817 -1.243613,0.690821 -1.461877,0.793796 -0.155086,-0.209073 -0.150767,-0.489248 -0.300339,-0.667055 -0.0472,-0.02392 -0.08031,-0.02882 -0.121999,-0.02147 -0.04169,0.0074 -0.08155,0.02513 -0.121393,0.04291 -0.170454,0.191262 -0.285119,0.394178 -0.397946,0.607517 -0.126319,0.258704 -0.306588,0.516177 -0.492373,0.742384 -0.02759,0.02636 -0.05886,0.03188 -0.08829,0.04781 -0.08398,-0.04967 -0.08643,-0.124463 -0.07661,-0.190675 0.01044,-0.184533 0.03989,-0.383167 0.05891,-0.579962 -0.01777,-0.03985 -0.03555,-0.07971 -0.06558,-0.12814 -0.07295,0.01287 -0.09197,0.02696 -0.09994,0.103603 -0.008,0.07663 0.0049,0.149591 -0.0068,0.205378 -0.06255,0.193725 -0.04787,0.459801 -0.01294,0.657828 0.106669,0.05641 0.166134,0.08891 0.218245,0.07972 0.08338,-0.01471 0.262418,-0.218228 0.313924,-0.291792 0.116503,-0.192494 0.24159,-0.397248 0.356256,-0.600164 0.09075,-0.155712 0.193761,-0.302839 0.319456,-0.44322 0.01717,-0.02453 0.0466,-0.04046 0.0656,-0.05455 0.08459,0.114041 0.210857,0.403425 0.236592,0.549339 0.0055,0.03127 -0.008,0.07663 -0.01289,0.109739 -0.367874,0.29056 -0.78909,0.644262 -1.067463,1.015757 -0.06009,0.08582 -0.12018,0.171649 -0.190693,0.259311 l -0.366052,0.483679 c -0.09443,0.134867 -0.28023,0.543769 -0.318868,0.69029 -0.09996,0.286296 -0.191335,0.56033 -0.200562,0.873611 -0.0074,0.141006 0.04412,0.250138 0.126871,0.353755 0.05639,0.07603 0.12996,0.127534 0.205362,0.189461 0.103603,0.09994 0.237859,0.129995 0.383773,0.104261 0.114648,-0.02022 0.237879,-0.0527 0.352527,-0.07292 0.26056,-0.04596 0.43469,-0.216372 0.592883,-0.416218 0.05151,-0.07356 0.09934,-0.167973 0.173524,-0.23479 0.02759,-0.02636 0.05334,-0.06314 0.05825,-0.09625 0.09382,-0.199239 0.175379,-0.407063 0.291882,-0.599557 0.01595,-0.153266 0.157587,-0.264218 0.16312,-0.415648 0.06193,-0.0754 0.06623,-0.17288 0.05152,-0.25626 0.04292,-0.06131 0.08768,-0.112184 0.123856,-0.150803 -0.01777,-0.03985 -0.02513,-0.08155 -0.0288,-0.102387 0.100584,-0.404619 0.122054,-0.526619 0.04485,-0.964362 -0.03248,-0.123231 -0.03553,-0.262398 -0.101118,-0.390537 -0.03555,-0.07971 -0.03125,-0.177182 -0.04779,-0.270984 z m -0.207236,0.16551 c 0.01777,0.03985 0.05639,0.07603 0.05149,0.109132 -0.01595,0.153266 0.05147,0.291828 0.04778,0.453679 0.0024,0.440187 0.0054,0.762052 -0.182199,1.160531 -0.146557,0.326754 -0.294952,0.643086 -0.464192,0.963094 -0.05825,0.09625 -0.118343,0.18207 -0.166171,0.276479 -0.138581,0.250121 -0.426751,0.505131 -0.708156,0.554762 -0.116485,0.0098 -0.228063,-0.01351 -0.335963,-0.01597 -0.12812,-0.11711 -0.1747,-0.259349 -0.198597,-0.39484 -0.06985,-0.396053 0.257601,-1.098604 0.461785,-1.403281 0.04354,-0.179626 0.16924,-0.320007 0.272252,-0.467135 0.194993,-0.35679 0.803832,-0.926275 1.150861,-1.213159 0.0086,-0.01226 0.02943,-0.01593 0.07112,-0.02329 z"
       style="font-size:10.58329999999999949px;line-height:1.25;font-family:'North Avellion';-inkscape-font-specification:'North Avellion';stroke-width:0.264583;fill:#ffffff;fill-opacity:1"
       id="path973"
       sodipodi:nodetypes="scccsccscccccccsccsccccsccccccccssccccccccccssscccccccscccss"
       inkscape:original-d="m 66.5983,93.467057 c 0.03175,-0.02117 0.05292,-0.03175 0.08467,-0.05292 0.211666,-0.09525 0.721391,-0.251595 1.561488,-0.402629 1.213228,-0.162396 1.530059,-0.434212 1.551225,-0.518882 -0.0635,-0.01058 -0.757182,0.02762 -1.609266,0.277266 -0.852012,0.249628 -1.344698,0.464322 -1.57753,0.527822 -0.116416,-0.232832 -0.0635,-0.507998 -0.179916,-0.709081 -0.04233,-0.03175 -0.07408,-0.04233 -0.116416,-0.04233 -0.04233,0 -0.08467,0.01058 -0.127,0.02117 -0.201083,0.158749 -0.349249,0.338665 -0.497415,0.529165 -0.169333,0.232832 -0.391582,0.455081 -0.613832,0.645581 -0.03175,0.02117 -0.0635,0.02117 -0.09525,0.03175 -0.07408,-0.0635 -0.0635,-0.137583 -0.04233,-0.201083 0.04233,-0.179916 0.105833,-0.370415 0.158749,-0.560915 -0.01058,-0.04233 -0.02117,-0.08467 -0.04233,-0.137583 -0.07408,0 -0.09525,0.01058 -0.116416,0.08467 -0.02117,0.07408 -0.02117,0.148166 -0.04233,0.201082 -0.09525,0.179916 -0.126999,0.444499 -0.126999,0.645582 0.09525,0.07408 0.148166,0.116416 0.201082,0.116416 0.08467,0 0.296333,-0.169333 0.359833,-0.232833 0.148166,-0.169333 0.306915,-0.349249 0.455082,-0.529165 0.116416,-0.137583 0.243415,-0.264582 0.391582,-0.380998 0.02117,-0.02117 0.05292,-0.03175 0.07408,-0.04233 0.0635,0.127 0.137583,0.433916 0.137583,0.582082 0,0.03175 -0.02117,0.07408 -0.03175,0.105833 -0.412749,0.222249 -0.888997,0.497415 -1.227663,0.814914 -0.07408,0.07408 -0.148166,0.148166 -0.232833,0.222249 L 64.4499,94.874639 c -0.116417,0.116416 -0.370416,0.486832 -0.433916,0.624415 -0.148166,0.264582 -0.285749,0.518581 -0.349248,0.825497 -0.03175,0.137583 0,0.253999 0.0635,0.370415 0.04233,0.08467 0.105833,0.148167 0.169333,0.22225 0.08467,0.116416 0.211666,0.169332 0.359832,0.169332 0.116417,0 0.243416,-0.01058 0.359833,-0.01058 0.264582,0 0.465665,-0.137583 0.656164,-0.306916 0.0635,-0.0635 0.127,-0.148166 0.211666,-0.201082 0.03175,-0.02117 0.0635,-0.05292 0.07408,-0.08467 0.127,-0.179916 0.243416,-0.370415 0.391582,-0.539748 0.04233,-0.148166 0.201083,-0.232832 0.232833,-0.380999 0.07408,-0.0635 0.09525,-0.158749 0.09525,-0.243416 0.05292,-0.05292 0.105833,-0.09525 0.148166,-0.126999 -0.01058,-0.04233 -0.01058,-0.08467 -0.01058,-0.105833 0.169332,-0.380999 0.211666,-0.497415 0.211666,-0.941914 -0.01058,-0.126999 0.01058,-0.264582 -0.03175,-0.402165 -0.02117,-0.08467 0,-0.179916 0,-0.275166 z m -0.232833,0.127 c 0.01058,0.04233 0.04233,0.08467 0.03175,0.116416 -0.04233,0.148166 0,0.296332 -0.03175,0.455082 -0.07408,0.433915 -0.127,0.751414 -0.380999,1.111246 -0.201082,0.296333 -0.402165,0.582082 -0.624414,0.867831 -0.07408,0.08467 -0.148167,0.158749 -0.211666,0.243416 -0.179917,0.222249 -0.507999,0.423332 -0.793748,0.423332 -0.116416,-0.01058 -0.222249,-0.05292 -0.328082,-0.07408 -0.105833,-0.137583 -0.127,-0.28575 -0.127,-0.423332 0,-0.402166 0.444499,-1.037164 0.698498,-1.301746 0.07408,-0.169333 0.222249,-0.285749 0.349249,-0.412749 0.253999,-0.317499 0.952497,-0.772581 1.344079,-0.99483 0.01058,-0.01058 0.03175,-0.01058 0.07408,-0.01058 z"
       inkscape:export-xdpi="384"
       inkscape:export-ydpi="384" />
    <path
       style="fill:#ffffff;fill-opacity:1;stroke-width:1.565;stroke-linecap:round;stroke-linejoin:round;paint-order:stroke markers fill"
       id="path4674"
       d="m 47.959628,100.14347 c 1.169525,-0.66688 2.680346,-1.375037 3.913098,-1.913072 1.322668,-0.577281 2.466343,-1.03182 3.81798,-1.534764 0.605316,-0.225234 1.215948,-0.435908 1.823924,-0.653864 1.850146,-0.630182 3.713752,-1.234202 5.622202,-1.664325 0.750134,-0.16906 0.95358,-0.194519 1.671825,-0.315875 0.633207,-0.09369 1.272128,-0.167741 1.913147,-0.153522 0.187566,0.007 0.37574,0.0088 0.561941,0.03406 0.41728,-0.05067 0.522869,-0.04889 0.766212,-0.389662 v 0 c -0.0605,-0.0068 -0.120984,-0.01386 -0.181163,-0.02318 -0.192048,-0.0273 -0.385318,-0.03044 -0.579184,-0.03343 -0.684567,0.0092 -1.363292,0.115239 -2.036759,0.230679 -0.756518,0.145942 -0.955802,0.176012 -1.746044,0.368023 -1.954477,0.474895 -3.864486,1.111464 -5.763771,1.768898 -0.613973,0.222395 -1.230265,0.438496 -1.841923,0.667184 -1.401511,0.523999 -2.424999,0.931127 -3.800708,1.519224 -1.000945,0.42789 -2.130782,0.926124 -3.106441,1.433854 -0.208371,0.145534 -1.473181,0.758042 -1.034336,0.659772 z"
       sodipodi:nodetypes="csscsccccscccscsscc"
       inkscape:export-xdpi="384"
       inkscape:export-ydpi="384" />
    <path
       sodipodi:type="star"
       style="fill:#ffffff;fill-opacity:1;stroke-width:1.565;stroke-linecap:round;stroke-linejoin:round;paint-order:stroke markers fill"
       id="path1497"
       sodipodi:sides="5"
       sodipodi:cx="62.369614"
       sodipodi:cy="91.304718"
       sodipodi:r1="0.65099126"
       sodipodi:r2="0.32549563"
       sodipodi:arg1="0.73781506"
       sodipodi:arg2="1.3661336"
       inkscape:flatsided="false"
       inkscape:rounded="0"
       inkscape:randomized="0"
       d="m 62.851308,91.742622 -0.415542,-0.119202 -0.333772,0.274737 -0.01504,-0.43204 -0.364431,-0.232538 0.406245,-0.147813 0.108542,-0.418453 0.266116,0.340686 0.431513,-0.02608 -0.241777,0.358368 z"
       inkscape:transform-center-x="-0.04326514"
       inkscape:transform-center-y="-0.019561803"
       transform="rotate(24.146016,62.226762,91.722173)"
       inkscape:export-xdpi="384"
       inkscape:export-ydpi="384" />
  </g>
</svg>
